<svg xmlns="http://www.w3.org/2000/svg" viewBox="0 0 1200 740" width="1200" height="740">
  <rect x="1" y="1" width="1198" height="738" rx="14" fill="#f8f7fb" stroke="#e3e1ec" stroke-width="2"/>

  <text x="260" y="100" text-anchor="middle" font-family="-apple-system, BlinkMacSystemFont, 'Segoe UI', sans-serif" font-size="20" fill="#626779">the turn: same moment, both curves</text>
  <path d="M260 112 V506" fill="none" stroke="#626779" stroke-width="1.8" stroke-dasharray="8 8"/>

  <path d="M104 110 V500 M104 500 H886" fill="none" stroke="#1b1f2c" stroke-width="1.6"/>
  <path d="M104 500 V510 M880 500 V510" fill="none" stroke="#1b1f2c" stroke-width="1.6"/>
  <text x="104" y="534" text-anchor="middle" font-family="ui-monospace, 'SF Mono', Menlo, monospace" font-size="20" fill="#626779">0</text>
  <text x="880" y="534" text-anchor="end" font-family="ui-monospace, 'SF Mono', Menlo, monospace" font-size="20" fill="#626779">9,600</text>
  <text x="492" y="568" text-anchor="middle" font-family="-apple-system, BlinkMacSystemFont, 'Segoe UI', sans-serif" font-size="20" fill="#626779">a component's life, in episodes</text>

  <path d="M104 300 C160 320, 212 336, 260 336 C320 336, 380 300, 460 262 C580 210, 720 180, 880 132" fill="none" stroke="#0f62c4" stroke-width="3"/>
  <path d="M104 152 C156 306, 212 418, 260 418 C330 418, 420 398, 520 382 C640 364, 760 350, 880 340" fill="none" stroke="#c2410c" stroke-width="3"/>

  <circle cx="260" cy="418" r="6" fill="#c2410c"/>
  <circle cx="260" cy="336" r="6" fill="#0f62c4"/>

  <text x="898" y="126" font-family="-apple-system, BlinkMacSystemFont, 'Segoe UI', sans-serif" font-size="20" fill="#0f62c4">the total size of</text>
  <text x="898" y="150" font-family="-apple-system, BlinkMacSystemFont, 'Segoe UI', sans-serif" font-size="20" fill="#0f62c4">the numbers inside it</text>
  <text x="898" y="334" font-family="-apple-system, BlinkMacSystemFont, 'Segoe UI', sans-serif" font-size="20" fill="#c2410c">how wrong its</text>
  <text x="898" y="358" font-family="-apple-system, BlinkMacSystemFont, 'Segoe UI', sans-serif" font-size="20" fill="#c2410c">predictions are</text>

  <path d="M104 606 V596 H252 V606" fill="none" stroke="#cbc8da" stroke-width="2"/>
  <path d="M268 606 V596 H886 V606" fill="none" stroke="#cbc8da" stroke-width="2"/>

  <text x="178" y="636" text-anchor="middle" font-family="-apple-system, BlinkMacSystemFont, 'Segoe UI', sans-serif" font-size="20" fill="#626779">healthy:</text>
  <text x="178" y="660" text-anchor="middle" font-family="-apple-system, BlinkMacSystemFont, 'Segoe UI', sans-serif" font-size="20" fill="#626779">getting smaller,</text>
  <text x="178" y="684" text-anchor="middle" font-family="-apple-system, BlinkMacSystemFont, 'Segoe UI', sans-serif" font-size="20" fill="#626779">getting better</text>

  <text x="577" y="636" text-anchor="middle" font-family="-apple-system, BlinkMacSystemFont, 'Segoe UI', sans-serif" font-size="20" fill="#626779">rot:</text>
  <text x="577" y="660" text-anchor="middle" font-family="-apple-system, BlinkMacSystemFont, 'Segoe UI', sans-serif" font-size="20" fill="#626779">getting bigger,</text>
  <text x="577" y="684" text-anchor="middle" font-family="-apple-system, BlinkMacSystemFont, 'Segoe UI', sans-serif" font-size="20" fill="#626779">getting worse</text>
</svg>
