<svg xmlns="http://www.w3.org/2000/svg" viewBox="0 0 1200 840" width="1200" height="840">
  <rect x="1" y="1" width="1198" height="838" rx="14" fill="#f8f7fb" stroke="#e3e1ec" stroke-width="2"/>
  <defs>
    <marker id="na-sm" markerUnits="userSpaceOnUse" markerWidth="9" markerHeight="7" refX="8" refY="3.5" orient="auto"><path d="M0 0 L9 3.5 L0 7 Z" fill="#c2410c"/></marker>
    <marker id="na-md" markerUnits="userSpaceOnUse" markerWidth="14" markerHeight="11" refX="13" refY="5.5" orient="auto"><path d="M0 0 L14 5.5 L0 11 Z" fill="#c2410c"/></marker>
    <marker id="na-lg" markerUnits="userSpaceOnUse" markerWidth="20" markerHeight="15" refX="19" refY="7.5" orient="auto"><path d="M0 0 L20 7.5 L0 15 Z" fill="#c2410c"/></marker>
  </defs>

  <text x="316" y="94" text-anchor="middle" font-family="-apple-system, BlinkMacSystemFont, 'Segoe UI', sans-serif" font-size="22" font-weight="600" fill="#1b1f2c">small numbers inside:</text>
  <text x="316" y="122" text-anchor="middle" font-family="-apple-system, BlinkMacSystemFont, 'Segoe UI', sans-serif" font-size="22" font-weight="600" fill="#1b1f2c">a nudge changes the answer</text>
  <text x="884" y="94" text-anchor="middle" font-family="-apple-system, BlinkMacSystemFont, 'Segoe UI', sans-serif" font-size="22" font-weight="600" fill="#1b1f2c">bloated numbers inside:</text>
  <text x="884" y="122" text-anchor="middle" font-family="-apple-system, BlinkMacSystemFont, 'Segoe UI', sans-serif" font-size="22" font-weight="600" fill="#1b1f2c">the same nudge changes nothing</text>

  <g transform="translate(60,150)">
    <rect x="0" y="0" width="512" height="410" rx="12" fill="#ffffff" stroke="#cbc8da" stroke-width="2"/>
    <text x="34" y="185" text-anchor="middle" transform="rotate(-90 34 185)" font-family="-apple-system, BlinkMacSystemFont, 'Segoe UI', sans-serif" font-size="20" fill="#626779">what comes out</text>
    <path d="M68 40 V330 H470" fill="none" stroke="#1b1f2c" stroke-width="1.6"/>
    <text x="269" y="372" text-anchor="middle" font-family="-apple-system, BlinkMacSystemFont, 'Segoe UI', sans-serif" font-size="20" fill="#626779">what goes in</text>
    <path d="M68 304 C150 304, 190 300, 224 262 C250 232, 288 138, 314 108 C348 68, 388 66, 470 66" fill="none" stroke="#1b1f2c" stroke-width="2.5"/>
    <path d="M68 185 H269 M315 108 H68" fill="none" stroke="#cbc8da" stroke-width="1.4" stroke-dasharray="6 6"/>
    <path d="M269 185 H311" fill="none" stroke="#c2410c" stroke-width="3" marker-end="url(#na-md)"/>
    <path d="M315 185 V114" fill="none" stroke="#c2410c" stroke-width="3" marker-end="url(#na-md)"/>
    <circle cx="269" cy="185" r="7" fill="#1b1f2c"/>
    <circle cx="315" cy="108" r="6" fill="#ffffff" stroke="#1b1f2c" stroke-width="2"/>
  </g>

  <g transform="translate(628,150)">
    <rect x="0" y="0" width="512" height="410" rx="12" fill="#ffffff" stroke="#cbc8da" stroke-width="2"/>
    <text x="34" y="185" text-anchor="middle" transform="rotate(-90 34 185)" font-family="-apple-system, BlinkMacSystemFont, 'Segoe UI', sans-serif" font-size="20" fill="#626779">what comes out</text>
    <path d="M68 40 V330 H470" fill="none" stroke="#1b1f2c" stroke-width="1.6"/>
    <text x="269" y="372" text-anchor="middle" font-family="-apple-system, BlinkMacSystemFont, 'Segoe UI', sans-serif" font-size="20" fill="#626779">what goes in</text>
    <path d="M68 304 C150 304, 190 300, 224 262 C250 232, 288 138, 314 108 C348 68, 388 66, 470 66" fill="none" stroke="#1b1f2c" stroke-width="2.5"/>
    <path d="M68 66 H400" fill="none" stroke="#cbc8da" stroke-width="1.4" stroke-dasharray="6 6"/>
    <path d="M400 66 H442" fill="none" stroke="#c2410c" stroke-width="3" marker-end="url(#na-md)"/>
    <path d="M446 68 V58" fill="none" stroke="#c2410c" stroke-width="3" marker-end="url(#na-sm)"/>
    <circle cx="400" cy="66" r="7" fill="#1b1f2c"/>
  </g>

  <rect x="628" y="584" width="512" height="136" rx="12" fill="#ffffff" stroke="#cbc8da" stroke-width="2"/>
  <path d="M668 650 H1100" fill="none" stroke="#cbc8da" stroke-width="2"/>
  <path d="M700 650 H1062" fill="none" stroke="#c2410c" stroke-width="5" marker-end="url(#na-lg)"/>
  <circle cx="804" cy="650" r="13" fill="none" stroke="#626779" stroke-width="2"/>
  <circle cx="804" cy="650" r="4" fill="#626779"/>
  <circle cx="700" cy="650" r="7" fill="#1b1f2c"/>

  <text x="884" y="756" text-anchor="middle" font-family="-apple-system, BlinkMacSystemFont, 'Segoe UI', sans-serif" font-size="20" fill="#626779">and the step that used to tune it</text>
  <text x="884" y="782" text-anchor="middle" font-family="-apple-system, BlinkMacSystemFont, 'Segoe UI', sans-serif" font-size="20" fill="#626779">now overshoots</text>
</svg>
