<svg xmlns="http://www.w3.org/2000/svg" viewBox="0 0 1200 1070" width="1200" height="1070" role="img" aria-label="The blocky bot with its twelve sense channels called out on the left as eyes, balance, taste, gut, skin, pockets and fingertips, its thirteen acts on the right as mouth, hands, legs and idle — and an empty head: the brain is not a body part.">
  <rect x="1" y="1" width="1198" height="1068" rx="14" fill="#f8f7fb" stroke="#e3e1ec" stroke-width="2"/>

  <!-- tallies -->
  <text x="60" y="96" font-family="ui-monospace, 'SF Mono', Menlo, monospace" font-size="20" letter-spacing="2" fill="#0f62c4">IN — 86 NUMBERS · 12 SENSE CHANNELS</text>
  <text x="1140" y="96" text-anchor="end" font-family="ui-monospace, 'SF Mono', Menlo, monospace" font-size="20" letter-spacing="2" fill="#c2410c">OUT — 13 ACTS · ONE PER TICK</text>

  <!-- the bot: two cubes tall, grey-blue, a visor band and no face -->
  <rect x="542" y="380" width="116" height="116" rx="8" fill="#e8edf5" stroke="#1b1f2c" stroke-width="2.5"/>
  <rect x="556" y="414" width="88" height="18" rx="3" fill="#1b1f2c"/>
  <rect x="542" y="500" width="116" height="116" rx="8" fill="#e8edf5" stroke="#1b1f2c" stroke-width="2.5"/>
  <line x1="600" y1="576" x2="600" y2="616" stroke="#1b1f2c" stroke-width="2"/>
  <rect x="506" y="508" width="30" height="84" rx="6" fill="#e8edf5" stroke="#1b1f2c" stroke-width="2.5"/>
  <rect x="664" y="508" width="30" height="84" rx="6" fill="#e8edf5" stroke="#1b1f2c" stroke-width="2.5"/>
  <rect x="552" y="570" width="28" height="24" rx="3" fill="#ffffff" stroke="#626779" stroke-width="1.8"/>
  <rect x="668" y="588" width="24" height="24" rx="3" fill="#ffffff" stroke="#c2410c" stroke-width="2.5"/>
  <line x1="470" y1="620" x2="730" y2="620" stroke="#cbc8da" stroke-width="2"/>
  <rect x="486" y="622" width="44" height="44" fill="#e8edf5" stroke="#cbc8da" stroke-width="1.5"/>
  <rect x="670" y="622" width="44" height="44" fill="#e8edf5" stroke="#cbc8da" stroke-width="1.5"/>

  <!-- sense callout lines and anchors -->
  <g fill="none" stroke="#cbc8da" stroke-width="1.5">
    <polyline points="405,194 470,194 549,421"/>
    <polyline points="405,314 480,314 538,466"/>
    <polyline points="405,434 490,434 538,510"/>
    <polyline points="405,554 495,554 538,543"/>
    <polyline points="405,674 460,674 502,564"/>
    <polyline points="405,794 495,794 547,580"/>
    <polyline points="405,914 470,914 518,592"/>
  </g>
  <g fill="#0f62c4">
    <circle cx="551" cy="423" r="3.5"/>
    <circle cx="540" cy="468" r="3.5"/>
    <circle cx="540" cy="512" r="3.5"/>
    <circle cx="540" cy="545" r="3.5"/>
    <circle cx="504" cy="566" r="3.5"/>
    <circle cx="549" cy="582" r="3.5"/>
    <circle cx="520" cy="594" r="3.5"/>
  </g>

  <!-- sense callouts, left -->
  <g font-family="ui-monospace, 'SF Mono', Menlo, monospace" font-size="20" letter-spacing="2" fill="#0f62c4">
    <text x="60" y="150">EYES</text>
    <text x="60" y="270">BALANCE</text>
    <text x="60" y="390">TASTE</text>
    <text x="60" y="510">GUT</text>
    <text x="60" y="630">SKIN</text>
    <text x="60" y="750">POCKETS</text>
    <text x="60" y="870">FINGERTIPS</text>
  </g>
  <g font-family="-apple-system, BlinkMacSystemFont, 'Segoe UI', sans-serif" font-size="22" fill="#1b1f2c">
    <text x="60" y="182">glance ·32 · blocks ·3 · drops ·8</text>
    <text x="60" y="302">pose ·5</text>
    <text x="60" y="422">aim ·9</text>
    <text x="60" y="542">vitals ·2 · flood ·4</text>
    <text x="60" y="662">env ·4</text>
    <text x="60" y="782">pocket ·4 · hand ·7 · grid ·7</text>
    <text x="60" y="902">mining ·1</text>
  </g>
  <g font-family="-apple-system, BlinkMacSystemFont, 'Segoe UI', sans-serif" font-size="20" fill="#626779">
    <text x="60" y="210">eight sightlines out to 16 blocks,</text>
    <text x="60" y="236">the ground ahead, the nearest drop</text>
    <text x="60" y="330">where I stand relative to spawn,</text>
    <text x="60" y="356">and which way I am facing</text>
    <text x="60" y="450">the palate: learned prices for what</text>
    <text x="60" y="476">each sightline sees — never names</text>
    <text x="60" y="570">the world's own health and food bars,</text>
    <text x="60" y="596">and hunger flooding in as it grows</text>
    <text x="60" y="690">light at my feet, time of day, rain</text>
    <text x="60" y="810">what I carry, hold, and stage in the</text>
    <text x="60" y="836">2×2 grid — counts and looks, no names</text>
    <text x="60" y="930">one progress sense: a dig's cracks</text>
    <text x="60" y="956">and a meal's chew share it</text>
  </g>

  <!-- act callout lines and anchors -->
  <g fill="none" stroke="#cbc8da" stroke-width="1.5">
    <polyline points="785,194 700,194 662,410"/>
    <polyline points="785,354 700,354 662,488"/>
    <polyline points="785,514 730,514 696,596"/>
    <polyline points="785,694 700,694 662,610"/>
  </g>
  <circle cx="660" cy="412" r="3.5" fill="#626779"/>
  <g fill="#c2410c">
    <circle cx="660" cy="490" r="3.5"/>
    <circle cx="694" cy="598" r="3.5"/>
    <circle cx="660" cy="612" r="3.5"/>
  </g>

  <!-- act callouts, right -->
  <text x="790" y="150" font-family="ui-monospace, 'SF Mono', Menlo, monospace" font-size="20" letter-spacing="2" fill="#1b1f2c">THE HEAD</text>
  <g font-family="ui-monospace, 'SF Mono', Menlo, monospace" font-size="20" letter-spacing="2" fill="#c2410c">
    <text x="790" y="310">MOUTH</text>
    <text x="790" y="470">HANDS</text>
    <text x="790" y="650">LEGS</text>
    <text x="790" y="810">…AND IDLE</text>
  </g>
  <g font-family="-apple-system, BlinkMacSystemFont, 'Segoe UI', sans-serif" font-size="22" fill="#1b1f2c">
    <text x="790" y="182">empty on purpose</text>
    <text x="790" y="342">use held ·1</text>
    <text x="790" y="502">dig ahead · place · swap held ·</text>
    <text x="790" y="528">stage · unstage · take offer ·6</text>
    <text x="790" y="682">forward · back · turns · jump ·5</text>
    <text x="790" y="842">do nothing ·1</text>
  </g>
  <g font-family="-apple-system, BlinkMacSystemFont, 'Segoe UI', sans-serif" font-size="20" fill="#626779">
    <text x="790" y="210">the brain is not a body part — the</text>
    <text x="790" y="236">same engine plugs into every body</text>
    <text x="790" y="370">no edibility check — the world</text>
    <text x="790" y="396">decides; food answers in vitals</text>
    <text x="790" y="556">one grammar: a first command starts</text>
    <text x="790" y="582">a hold; anything else lets go</text>
    <text x="790" y="710">each step one block, each turn 45°,</text>
    <text x="790" y="736">moving the world across the senses</text>
    <text x="790" y="870">even nothing is a choice — any new</text>
    <text x="790" y="896">act releases the hold in progress</text>
  </g>

  <path d="M 60 996 L 60 1008 L 1140 1008 L 1140 996" fill="none" stroke="#626779" stroke-width="2"/>
  <text x="600" y="1042" text-anchor="middle" font-family="-apple-system, BlinkMacSystemFont, 'Segoe UI', sans-serif" font-size="22" fill="#1b1f2c">the survival body for Minecraft — sensors in, actuators out, and no brain on the list</text>
</svg>
