<svg xmlns="http://www.w3.org/2000/svg" viewBox="0 0 1200 670" width="1200" height="670">
  <rect x="1" y="1" width="1198" height="668" rx="14" fill="#f8f7fb" stroke="#e3e1ec" stroke-width="2"/>
  <text x="100" y="100" font-family="-apple-system, BlinkMacSystemFont, 'Segoe UI', sans-serif" font-size="22" font-weight="600" fill="#1b1f2c" text-anchor="start">what the demonstration left behind: one recipe</text>
  <rect x="92" y="118" width="752" height="116" rx="6" fill="#e8edf5" stroke="#cbc8da" stroke-width="2"/>
  <rect x="102" y="121" width="14" height="7" rx="2" fill="#ffffff" stroke="#cbc8da" stroke-width="1"/>
  <rect x="102" y="224" width="14" height="7" rx="2" fill="#ffffff" stroke="#cbc8da" stroke-width="1"/>
  <rect x="132" y="121" width="14" height="7" rx="2" fill="#ffffff" stroke="#cbc8da" stroke-width="1"/>
  <rect x="132" y="224" width="14" height="7" rx="2" fill="#ffffff" stroke="#cbc8da" stroke-width="1"/>
  <rect x="162" y="121" width="14" height="7" rx="2" fill="#ffffff" stroke="#cbc8da" stroke-width="1"/>
  <rect x="162" y="224" width="14" height="7" rx="2" fill="#ffffff" stroke="#cbc8da" stroke-width="1"/>
  <rect x="192" y="121" width="14" height="7" rx="2" fill="#ffffff" stroke="#cbc8da" stroke-width="1"/>
  <rect x="192" y="224" width="14" height="7" rx="2" fill="#ffffff" stroke="#cbc8da" stroke-width="1"/>
  <rect x="222" y="121" width="14" height="7" rx="2" fill="#ffffff" stroke="#cbc8da" stroke-width="1"/>
  <rect x="222" y="224" width="14" height="7" rx="2" fill="#ffffff" stroke="#cbc8da" stroke-width="1"/>
  <rect x="252" y="121" width="14" height="7" rx="2" fill="#ffffff" stroke="#cbc8da" stroke-width="1"/>
  <rect x="252" y="224" width="14" height="7" rx="2" fill="#ffffff" stroke="#cbc8da" stroke-width="1"/>
  <rect x="282" y="121" width="14" height="7" rx="2" fill="#ffffff" stroke="#cbc8da" stroke-width="1"/>
  <rect x="282" y="224" width="14" height="7" rx="2" fill="#ffffff" stroke="#cbc8da" stroke-width="1"/>
  <rect x="312" y="121" width="14" height="7" rx="2" fill="#ffffff" stroke="#cbc8da" stroke-width="1"/>
  <rect x="312" y="224" width="14" height="7" rx="2" fill="#ffffff" stroke="#cbc8da" stroke-width="1"/>
  <rect x="342" y="121" width="14" height="7" rx="2" fill="#ffffff" stroke="#cbc8da" stroke-width="1"/>
  <rect x="342" y="224" width="14" height="7" rx="2" fill="#ffffff" stroke="#cbc8da" stroke-width="1"/>
  <rect x="372" y="121" width="14" height="7" rx="2" fill="#ffffff" stroke="#cbc8da" stroke-width="1"/>
  <rect x="372" y="224" width="14" height="7" rx="2" fill="#ffffff" stroke="#cbc8da" stroke-width="1"/>
  <rect x="402" y="121" width="14" height="7" rx="2" fill="#ffffff" stroke="#cbc8da" stroke-width="1"/>
  <rect x="402" y="224" width="14" height="7" rx="2" fill="#ffffff" stroke="#cbc8da" stroke-width="1"/>
  <rect x="432" y="121" width="14" height="7" rx="2" fill="#ffffff" stroke="#cbc8da" stroke-width="1"/>
  <rect x="432" y="224" width="14" height="7" rx="2" fill="#ffffff" stroke="#cbc8da" stroke-width="1"/>
  <rect x="462" y="121" width="14" height="7" rx="2" fill="#ffffff" stroke="#cbc8da" stroke-width="1"/>
  <rect x="462" y="224" width="14" height="7" rx="2" fill="#ffffff" stroke="#cbc8da" stroke-width="1"/>
  <rect x="492" y="121" width="14" height="7" rx="2" fill="#ffffff" stroke="#cbc8da" stroke-width="1"/>
  <rect x="492" y="224" width="14" height="7" rx="2" fill="#ffffff" stroke="#cbc8da" stroke-width="1"/>
  <rect x="522" y="121" width="14" height="7" rx="2" fill="#ffffff" stroke="#cbc8da" stroke-width="1"/>
  <rect x="522" y="224" width="14" height="7" rx="2" fill="#ffffff" stroke="#cbc8da" stroke-width="1"/>
  <rect x="552" y="121" width="14" height="7" rx="2" fill="#ffffff" stroke="#cbc8da" stroke-width="1"/>
  <rect x="552" y="224" width="14" height="7" rx="2" fill="#ffffff" stroke="#cbc8da" stroke-width="1"/>
  <rect x="582" y="121" width="14" height="7" rx="2" fill="#ffffff" stroke="#cbc8da" stroke-width="1"/>
  <rect x="582" y="224" width="14" height="7" rx="2" fill="#ffffff" stroke="#cbc8da" stroke-width="1"/>
  <rect x="612" y="121" width="14" height="7" rx="2" fill="#ffffff" stroke="#cbc8da" stroke-width="1"/>
  <rect x="612" y="224" width="14" height="7" rx="2" fill="#ffffff" stroke="#cbc8da" stroke-width="1"/>
  <rect x="642" y="121" width="14" height="7" rx="2" fill="#ffffff" stroke="#cbc8da" stroke-width="1"/>
  <rect x="642" y="224" width="14" height="7" rx="2" fill="#ffffff" stroke="#cbc8da" stroke-width="1"/>
  <rect x="672" y="121" width="14" height="7" rx="2" fill="#ffffff" stroke="#cbc8da" stroke-width="1"/>
  <rect x="672" y="224" width="14" height="7" rx="2" fill="#ffffff" stroke="#cbc8da" stroke-width="1"/>
  <rect x="702" y="121" width="14" height="7" rx="2" fill="#ffffff" stroke="#cbc8da" stroke-width="1"/>
  <rect x="702" y="224" width="14" height="7" rx="2" fill="#ffffff" stroke="#cbc8da" stroke-width="1"/>
  <rect x="732" y="121" width="14" height="7" rx="2" fill="#ffffff" stroke="#cbc8da" stroke-width="1"/>
  <rect x="732" y="224" width="14" height="7" rx="2" fill="#ffffff" stroke="#cbc8da" stroke-width="1"/>
  <rect x="762" y="121" width="14" height="7" rx="2" fill="#ffffff" stroke="#cbc8da" stroke-width="1"/>
  <rect x="762" y="224" width="14" height="7" rx="2" fill="#ffffff" stroke="#cbc8da" stroke-width="1"/>
  <rect x="792" y="121" width="14" height="7" rx="2" fill="#ffffff" stroke="#cbc8da" stroke-width="1"/>
  <rect x="792" y="224" width="14" height="7" rx="2" fill="#ffffff" stroke="#cbc8da" stroke-width="1"/>
  <rect x="822" y="121" width="14" height="7" rx="2" fill="#ffffff" stroke="#cbc8da" stroke-width="1"/>
  <rect x="822" y="224" width="14" height="7" rx="2" fill="#ffffff" stroke="#cbc8da" stroke-width="1"/>
  <g transform="translate(100,130)">
    <rect x="0" y="0" width="92" height="92" fill="#ffffff"/>
    <rect x="0" y="0" width="92" height="60" fill="#eef2f7"/>
    <rect x="0" y="60" width="92" height="32" fill="#a7c9a2"/>
    <line x1="0" y1="60" x2="92" y2="60" stroke="#7fae7a" stroke-width="3"/>
    <rect x="0" y="0" width="92" height="92" fill="#0f62c4" fill-opacity="0.07"/>
    <rect x="0" y="0" width="92" height="92" fill="none" stroke="#cbc8da" stroke-width="2.4"/>
  </g>
  <g transform="translate(192,130)">
    <rect x="0" y="0" width="92" height="92" fill="#ffffff"/>
    <rect x="0" y="0" width="92" height="60" fill="#eef2f7"/>
    <rect x="0" y="60" width="92" height="32" fill="#a7c9a2"/>
    <line x1="0" y1="60" x2="92" y2="60" stroke="#7fae7a" stroke-width="3"/>
    <rect x="0" y="0" width="92" height="92" fill="#0f62c4" fill-opacity="0.07"/>
    <rect x="0" y="0" width="92" height="92" fill="none" stroke="#cbc8da" stroke-width="2.4"/>
  </g>
  <g transform="translate(284,130)">
    <rect x="0" y="0" width="92" height="92" fill="#ffffff"/>
    <rect x="0" y="0" width="92" height="60" fill="#eef2f7"/>
    <rect x="0" y="60" width="92" height="32" fill="#a7c9a2"/>
    <line x1="0" y1="60" x2="92" y2="60" stroke="#7fae7a" stroke-width="3"/>
    <rect x="66" y="34" width="13" height="13" fill="#e8edf5" stroke="#cbc8da" stroke-width="1.4"/>
    <rect x="79" y="34" width="13" height="13" fill="#e8edf5" stroke="#cbc8da" stroke-width="1.4"/>
    <rect x="66" y="47" width="13" height="13" fill="#e8edf5" stroke="#cbc8da" stroke-width="1.4"/>
    <rect x="79" y="47" width="13" height="13" fill="#e8edf5" stroke="#cbc8da" stroke-width="1.4"/>
    <rect x="0" y="0" width="92" height="92" fill="#0f62c4" fill-opacity="0.07"/>
    <rect x="0" y="0" width="92" height="92" fill="none" stroke="#cbc8da" stroke-width="2.4"/>
  </g>
  <g transform="translate(376,130)">
    <rect x="0" y="0" width="92" height="92" fill="#ffffff"/>
    <rect x="0" y="0" width="92" height="60" fill="#eef2f7"/>
    <rect x="0" y="60" width="92" height="32" fill="#a7c9a2"/>
    <line x1="0" y1="60" x2="92" y2="60" stroke="#7fae7a" stroke-width="3"/>
    <rect x="10" y="12" width="24" height="24" fill="#e8edf5" stroke="#cbc8da" stroke-width="1.4"/>
    <rect x="34" y="12" width="24" height="24" fill="#e8edf5" stroke="#cbc8da" stroke-width="1.4"/>
    <rect x="58" y="12" width="24" height="24" fill="#e8edf5" stroke="#cbc8da" stroke-width="1.4"/>
    <rect x="10" y="36" width="24" height="24" fill="#e8edf5" stroke="#cbc8da" stroke-width="1.4"/>
    <rect x="34" y="36" width="24" height="24" fill="#e8edf5" stroke="#cbc8da" stroke-width="1.4"/>
    <rect x="58" y="36" width="24" height="24" fill="#e8edf5" stroke="#cbc8da" stroke-width="1.4"/>
    <rect x="10" y="60" width="24" height="24" fill="#e8edf5" stroke="#cbc8da" stroke-width="1.4"/>
    <rect x="34" y="60" width="24" height="24" fill="#e8edf5" stroke="#cbc8da" stroke-width="1.4"/>
    <rect x="58" y="60" width="24" height="24" fill="#e8edf5" stroke="#cbc8da" stroke-width="1.4"/>
    <rect x="0" y="0" width="92" height="92" fill="#0f62c4" fill-opacity="0.07"/>
    <rect x="0" y="0" width="92" height="92" fill="none" stroke="#cbc8da" stroke-width="2.4"/>
  </g>
  <g transform="translate(468,130)">
    <rect x="0" y="0" width="92" height="92" fill="#ffffff"/>
    <rect x="0" y="0" width="92" height="60" fill="#eef2f7"/>
    <rect x="0" y="60" width="92" height="32" fill="#a7c9a2"/>
    <line x1="0" y1="60" x2="92" y2="60" stroke="#7fae7a" stroke-width="3"/>
    <rect x="10" y="12" width="24" height="24" fill="#e8edf5" stroke="#cbc8da" stroke-width="1.4"/>
    <rect x="34" y="12" width="24" height="24" fill="#e8edf5" stroke="#cbc8da" stroke-width="1.4"/>
    <rect x="58" y="12" width="24" height="24" fill="#e8edf5" stroke="#cbc8da" stroke-width="1.4"/>
    <rect x="10" y="36" width="24" height="24" fill="#e8edf5" stroke="#cbc8da" stroke-width="1.4"/>
    <rect x="34" y="36" width="24" height="24" fill="#e8edf5" stroke="#cbc8da" stroke-width="1.4"/>
    <rect x="58" y="36" width="24" height="24" fill="#e8edf5" stroke="#cbc8da" stroke-width="1.4"/>
    <rect x="10" y="60" width="24" height="24" fill="#e8edf5" stroke="#cbc8da" stroke-width="1.4"/>
    <rect x="34" y="60" width="24" height="24" fill="#e8edf5" stroke="#cbc8da" stroke-width="1.4"/>
    <rect x="58" y="60" width="24" height="24" fill="#e8edf5" stroke="#cbc8da" stroke-width="1.4"/>
    <rect x="0" y="0" width="92" height="92" fill="#0f62c4" fill-opacity="0.07"/>
    <rect x="0" y="0" width="92" height="92" fill="none" stroke="#cbc8da" stroke-width="2.4"/>
  </g>
  <g transform="translate(560,130)">
    <rect x="0" y="0" width="92" height="92" fill="#ffffff"/>
    <rect x="0" y="0" width="92" height="60" fill="#eef2f7"/>
    <rect x="0" y="60" width="92" height="32" fill="#a7c9a2"/>
    <line x1="0" y1="60" x2="92" y2="60" stroke="#7fae7a" stroke-width="3"/>
    <rect x="10" y="12" width="24" height="24" fill="#e8edf5" stroke="#cbc8da" stroke-width="1.4"/>
    <rect x="34" y="12" width="24" height="24" fill="#e8edf5" stroke="#cbc8da" stroke-width="1.4"/>
    <rect x="58" y="12" width="24" height="24" fill="#e8edf5" stroke="#cbc8da" stroke-width="1.4"/>
    <rect x="10" y="36" width="24" height="24" fill="#e8edf5" stroke="#cbc8da" stroke-width="1.4"/>
    <rect x="34" y="36" width="24" height="24" fill="#626779" fill-opacity="0.45" stroke="#626779" stroke-width="1.4" stroke-dasharray="4 3"/>
    <rect x="58" y="36" width="24" height="24" fill="#e8edf5" stroke="#cbc8da" stroke-width="1.4"/>
    <rect x="10" y="60" width="24" height="24" fill="#e8edf5" stroke="#cbc8da" stroke-width="1.4"/>
    <rect x="34" y="60" width="24" height="24" fill="#e8edf5" stroke="#cbc8da" stroke-width="1.4"/>
    <rect x="58" y="60" width="24" height="24" fill="#e8edf5" stroke="#cbc8da" stroke-width="1.4"/>
    <rect x="0" y="0" width="92" height="92" fill="#0f62c4" fill-opacity="0.07"/>
    <rect x="0" y="0" width="92" height="92" fill="none" stroke="#cbc8da" stroke-width="2.4"/>
  </g>
  <g transform="translate(652,130)">
    <rect x="0" y="0" width="92" height="92" fill="#ffffff"/>
    <rect x="0" y="0" width="92" height="60" fill="#eef2f7"/>
    <rect x="0" y="60" width="92" height="32" fill="#a7c9a2"/>
    <line x1="0" y1="60" x2="92" y2="60" stroke="#7fae7a" stroke-width="3"/>
    <rect x="10" y="12" width="24" height="24" fill="#e8edf5" stroke="#cbc8da" stroke-width="1.4"/>
    <rect x="34" y="12" width="24" height="24" fill="#e8edf5" stroke="#cbc8da" stroke-width="1.4"/>
    <rect x="58" y="12" width="24" height="24" fill="#e8edf5" stroke="#cbc8da" stroke-width="1.4"/>
    <rect x="10" y="36" width="24" height="24" fill="#626779" fill-opacity="0.45" stroke="#626779" stroke-width="1.4" stroke-dasharray="4 3"/>
    <rect x="34" y="36" width="24" height="24" fill="#626779" fill-opacity="0.45" stroke="#626779" stroke-width="1.4" stroke-dasharray="4 3"/>
    <rect x="58" y="36" width="24" height="24" fill="#e8edf5" stroke="#cbc8da" stroke-width="1.4"/>
    <rect x="10" y="60" width="24" height="24" fill="#e8edf5" stroke="#cbc8da" stroke-width="1.4"/>
    <rect x="34" y="60" width="24" height="24" fill="#e8edf5" stroke="#cbc8da" stroke-width="1.4"/>
    <rect x="58" y="60" width="24" height="24" fill="#e8edf5" stroke="#cbc8da" stroke-width="1.4"/>
    <rect x="0" y="0" width="92" height="92" fill="#0f62c4" fill-opacity="0.07"/>
    <rect x="0" y="0" width="92" height="92" fill="none" stroke="#cbc8da" stroke-width="2.4"/>
  </g>
  <g transform="translate(744,130)">
    <rect x="0" y="0" width="92" height="92" fill="#ffffff"/>
    <rect x="0" y="0" width="92" height="92" fill="#eef2f7"/>
    <rect x="18" y="26" width="56" height="44" rx="6" fill="#ffffff" stroke="#626779" stroke-width="2" stroke-dasharray="6 5"/>
    <rect x="32" y="36" width="28" height="26" fill="#c9c6d6" stroke="#626779" stroke-width="1.6"/>
    <line x1="32" y1="49" x2="60" y2="49" stroke="#626779" stroke-width="1.2"/>
    <line x1="46" y1="36" x2="46" y2="49" stroke="#626779" stroke-width="1.2"/>
    <line x1="39" y1="49" x2="39" y2="62" stroke="#626779" stroke-width="1.2"/>
    <line x1="53" y1="49" x2="53" y2="62" stroke="#626779" stroke-width="1.2"/>
    <rect x="0" y="0" width="92" height="92" fill="#0f62c4" fill-opacity="0.07"/>
    <rect x="0" y="0" width="92" height="92" fill="none" stroke="#c2410c" stroke-width="3.4"/>
  </g>
  <rect x="-19" y="-15" width="19" height="30" rx="6" transform="translate(787.0,92) rotate(-16)" fill="#626779" fill-opacity="0.18" stroke="#626779" stroke-opacity="0.75" stroke-width="1.8"/>
  <rect x="0" y="-15" width="19" height="30" rx="6" transform="translate(793.0,92) rotate(16)" fill="#626779" fill-opacity="0.18" stroke="#626779" stroke-opacity="0.75" stroke-width="1.8"/>
  <path d="M 757.0 80 A 17 17 0 0 0 757.0 104" fill="none" stroke="#626779" stroke-opacity="0.5" stroke-width="1.8"/>
  <path d="M 823.0 80 A 17 17 0 0 1 823.0 104" fill="none" stroke="#626779" stroke-opacity="0.5" stroke-width="1.8"/>
  <line x1="790.0" y1="110" x2="790.0" y2="118" stroke="#c2410c" stroke-width="2"/>
  <text x="836" y="268" font-family="-apple-system, BlinkMacSystemFont, 'Segoe UI', sans-serif" font-size="20" fill="#1b1f2c" text-anchor="end">the applause, remembered inside the ending</text>
  <polyline points="836,252 836,244 790,244 790,236" fill="none" stroke="#cbc8da" stroke-width="1.6"/>
  <rect x="870" y="118" width="275" height="212" rx="12" fill="#ffffff" stroke="#cbc8da" stroke-width="2"/>
  <text x="892" y="152" font-family="-apple-system, BlinkMacSystemFont, 'Segoe UI', sans-serif" font-size="18" fill="#1b1f2c" text-anchor="start">two recipes stored &#8212;</text>
  <text x="892" y="178" font-family="-apple-system, BlinkMacSystemFont, 'Segoe UI', sans-serif" font-size="18" fill="#1b1f2c" text-anchor="start">wood, ending in sticks,</text>
  <text x="892" y="204" font-family="-apple-system, BlinkMacSystemFont, 'Segoe UI', sans-serif" font-size="18" fill="#1b1f2c" text-anchor="start">no applause; stone,</text>
  <text x="892" y="230" font-family="-apple-system, BlinkMacSystemFont, 'Segoe UI', sans-serif" font-size="18" fill="#1b1f2c" text-anchor="start">ending in cobblestone,</text>
  <text x="892" y="256" font-family="-apple-system, BlinkMacSystemFont, 'Segoe UI', sans-serif" font-size="18" fill="#1b1f2c" text-anchor="start">applause remembered.</text>
  <text x="892" y="282" font-family="-apple-system, BlinkMacSystemFont, 'Segoe UI', sans-serif" font-size="18" fill="#1b1f2c" text-anchor="start">Pick the ending</text>
  <text x="892" y="308" font-family="-apple-system, BlinkMacSystemFont, 'Segoe UI', sans-serif" font-size="18" fill="#1b1f2c" text-anchor="start">worth more.</text>
  <rect x="52" y="500" width="1096" height="70" fill="#eef1f6" stroke="#cbc8da" stroke-width="1.6"/>
  <line x1="52" y1="500" x2="52" y2="570" stroke="#cbc8da" stroke-width="1.2"/>
  <line x1="110" y1="500" x2="110" y2="570" stroke="#cbc8da" stroke-width="1.2"/>
  <line x1="168" y1="500" x2="168" y2="570" stroke="#cbc8da" stroke-width="1.2"/>
  <line x1="226" y1="500" x2="226" y2="570" stroke="#cbc8da" stroke-width="1.2"/>
  <line x1="284" y1="500" x2="284" y2="570" stroke="#cbc8da" stroke-width="1.2"/>
  <line x1="342" y1="500" x2="342" y2="570" stroke="#cbc8da" stroke-width="1.2"/>
  <line x1="400" y1="500" x2="400" y2="570" stroke="#cbc8da" stroke-width="1.2"/>
  <line x1="458" y1="500" x2="458" y2="570" stroke="#cbc8da" stroke-width="1.2"/>
  <line x1="516" y1="500" x2="516" y2="570" stroke="#cbc8da" stroke-width="1.2"/>
  <line x1="574" y1="500" x2="574" y2="570" stroke="#cbc8da" stroke-width="1.2"/>
  <line x1="632" y1="500" x2="632" y2="570" stroke="#cbc8da" stroke-width="1.2"/>
  <line x1="690" y1="500" x2="690" y2="570" stroke="#cbc8da" stroke-width="1.2"/>
  <line x1="748" y1="500" x2="748" y2="570" stroke="#cbc8da" stroke-width="1.2"/>
  <line x1="806" y1="500" x2="806" y2="570" stroke="#cbc8da" stroke-width="1.2"/>
  <line x1="864" y1="500" x2="864" y2="570" stroke="#cbc8da" stroke-width="1.2"/>
  <line x1="922" y1="500" x2="922" y2="570" stroke="#cbc8da" stroke-width="1.2"/>
  <line x1="980" y1="500" x2="980" y2="570" stroke="#cbc8da" stroke-width="1.2"/>
  <line x1="1038" y1="500" x2="1038" y2="570" stroke="#cbc8da" stroke-width="1.2"/>
  <line x1="1096" y1="500" x2="1096" y2="570" stroke="#cbc8da" stroke-width="1.2"/>
  <rect x="52" y="500" width="1096" height="11" fill="#7fae7a"/>
  <rect x="830" y="453" width="53" height="47" fill="#e8edf5" stroke="#cbc8da" stroke-width="1.6"/>
  <rect x="883" y="453" width="53" height="47" fill="#e8edf5" stroke="#cbc8da" stroke-width="1.6"/>
  <rect x="936" y="453" width="53" height="47" fill="#e8edf5" stroke="#cbc8da" stroke-width="1.6"/>
  <rect x="989" y="453" width="53" height="47" fill="#e8edf5" stroke="#cbc8da" stroke-width="1.6"/>
  <rect x="1042" y="453" width="53" height="47" fill="#e8edf5" stroke="#cbc8da" stroke-width="1.6"/>
  <rect x="1095" y="453" width="53" height="47" fill="#e8edf5" stroke="#cbc8da" stroke-width="1.6"/>
  <rect x="830" y="406" width="53" height="47" fill="#e8edf5" stroke="#cbc8da" stroke-width="1.6"/>
  <rect x="883" y="406" width="53" height="47" fill="#e8edf5" stroke="#cbc8da" stroke-width="1.6"/>
  <rect x="936" y="406" width="53" height="47" fill="#e8edf5" stroke="#cbc8da" stroke-width="1.6"/>
  <rect x="989" y="406" width="53" height="47" fill="#e8edf5" stroke="#cbc8da" stroke-width="1.6"/>
  <rect x="1042" y="406" width="53" height="47" fill="#e8edf5" stroke="#cbc8da" stroke-width="1.6"/>
  <rect x="1095" y="406" width="53" height="47" fill="#e8edf5" stroke="#cbc8da" stroke-width="1.6"/>
  <rect x="830" y="359" width="53" height="47" fill="#e8edf5" stroke="#cbc8da" stroke-width="1.6"/>
  <rect x="883" y="359" width="53" height="47" fill="#e8edf5" stroke="#cbc8da" stroke-width="1.6"/>
  <rect x="936" y="359" width="53" height="47" fill="#e8edf5" stroke="#cbc8da" stroke-width="1.6"/>
  <rect x="989" y="359" width="53" height="47" fill="#e8edf5" stroke="#cbc8da" stroke-width="1.6"/>
  <rect x="1042" y="359" width="53" height="47" fill="#e8edf5" stroke="#cbc8da" stroke-width="1.6"/>
  <rect x="1095" y="359" width="53" height="47" fill="#e8edf5" stroke="#cbc8da" stroke-width="1.6"/>
  <rect x="58" y="436" width="66" height="64" fill="#ffffff" stroke="#626779" stroke-width="2"/>
  <rect x="66" y="444" width="16" height="14" fill="#e8edf5" stroke="#cbc8da" stroke-width="1.2"/>
  <rect x="84" y="444" width="16" height="14" fill="#e8edf5" stroke="#cbc8da" stroke-width="1.2"/>
  <rect x="102" y="444" width="16" height="14" fill="#e8edf5" stroke="#cbc8da" stroke-width="1.2"/>
  <rect x="66" y="460" width="16" height="14" fill="#e8edf5" stroke="#cbc8da" stroke-width="1.2"/>
  <rect x="84" y="460" width="16" height="14" fill="#e8edf5" stroke="#cbc8da" stroke-width="1.2"/>
  <rect x="102" y="460" width="16" height="14" fill="#e8edf5" stroke="#cbc8da" stroke-width="1.2"/>
  <rect x="66" y="476" width="16" height="14" fill="#e8edf5" stroke="#cbc8da" stroke-width="1.2"/>
  <rect x="84" y="476" width="16" height="14" fill="#e8edf5" stroke="#cbc8da" stroke-width="1.2"/>
  <rect x="102" y="476" width="16" height="14" fill="#e8edf5" stroke="#cbc8da" stroke-width="1.2"/>
  <ellipse cx="146" cy="516" rx="14" ry="7" fill="#626779" fill-opacity="0.35"/>
  <ellipse cx="146" cy="504" rx="10" ry="5" fill="#626779" fill-opacity="0.35"/>
  <ellipse cx="238" cy="516" rx="14" ry="7" fill="#626779" fill-opacity="0.35"/>
  <ellipse cx="238" cy="504" rx="10" ry="5" fill="#626779" fill-opacity="0.35"/>
  <ellipse cx="330" cy="516" rx="14" ry="7" fill="#626779" fill-opacity="0.35"/>
  <ellipse cx="330" cy="504" rx="10" ry="5" fill="#626779" fill-opacity="0.35"/>
  <ellipse cx="422" cy="516" rx="14" ry="7" fill="#626779" fill-opacity="0.35"/>
  <ellipse cx="422" cy="504" rx="10" ry="5" fill="#626779" fill-opacity="0.35"/>
  <ellipse cx="514" cy="516" rx="14" ry="7" fill="#626779" fill-opacity="0.35"/>
  <ellipse cx="514" cy="504" rx="10" ry="5" fill="#626779" fill-opacity="0.35"/>
  <ellipse cx="606" cy="516" rx="14" ry="7" fill="#626779" fill-opacity="0.35"/>
  <ellipse cx="606" cy="504" rx="10" ry="5" fill="#626779" fill-opacity="0.35"/>
  <ellipse cx="698" cy="516" rx="14" ry="7" fill="#626779" fill-opacity="0.35"/>
  <ellipse cx="698" cy="504" rx="10" ry="5" fill="#626779" fill-opacity="0.35"/>
  <ellipse cx="790" cy="516" rx="14" ry="7" fill="#626779" fill-opacity="0.35"/>
  <ellipse cx="790" cy="504" rx="10" ry="5" fill="#626779" fill-opacity="0.35"/>
  <circle cx="422" cy="510" r="30" fill="none" stroke="#0f62c4" stroke-width="2.4" stroke-dasharray="7 6"/>
  <g transform="translate(330,504)">
    <rect x="-17" y="-58" width="34" height="30" rx="4" fill="#9aa6bb" stroke="#626779" stroke-width="2"/>
    <rect x="-11" y="-49" width="22" height="8" rx="2" fill="#1b1f2c"/>
    <rect x="-15" y="-26" width="30" height="16" rx="3" fill="#9aa6bb" stroke="#626779" stroke-width="2"/>
    <rect x="-14" y="-10" width="12" height="12" rx="2" fill="#9aa6bb" stroke="#626779" stroke-width="2"/>
    <rect x="2" y="-10" width="12" height="12" rx="2" fill="#9aa6bb" stroke="#626779" stroke-width="2"/>
  </g>
  <line x1="354" y1="462" x2="388" y2="462" stroke="#c2410c" stroke-width="3.4"/>
  <polygon points="388,454 388,470 404,462" fill="#c2410c"/>
  <line x1="330" y1="236" x2="330" y2="434" stroke="#cbc8da" stroke-width="1.6" stroke-dasharray="6 6"/>
  <polygon points="324,434 336,434 330,446" fill="#cbc8da"/>
  <text x="470" y="372" font-family="-apple-system, BlinkMacSystemFont, 'Segoe UI', sans-serif" font-size="20" fill="#1b1f2c" text-anchor="start">the subgoal is the next step,</text>
  <text x="470" y="396" font-family="-apple-system, BlinkMacSystemFont, 'Segoe UI', sans-serif" font-size="20" fill="#1b1f2c" text-anchor="start">not the far end</text>
  <polyline points="466,388 430,424 408,456" fill="none" stroke="#cbc8da" stroke-width="1.6"/>
  <text x="422" y="620" font-family="-apple-system, BlinkMacSystemFont, 'Segoe UI', sans-serif" font-size="20" fill="#0f62c4" text-anchor="middle">pointer advances within a block</text>
  <polyline points="422,602 422,578" fill="none" stroke="#cbc8da" stroke-width="1.6"/>
</svg>
